<svg xmlns="http://www.w3.org/2000/svg" xmlns:xlink="http://www.w3.org/1999/xlink" width="281.318" height="199.102" viewBox="0 0 281.318 199.102">
  <defs>
    <linearGradient id="linear-gradient" x1="25.037" y1="28.976" x2="24.442" y2="28.201" gradientUnits="objectBoundingBox">
      <stop offset="0" stop-color="#0070b6"/>
      <stop offset="1" stop-color="#1d2c5e"/>
    </linearGradient>
    <linearGradient id="linear-gradient-2" x1="18.122" y1="29.422" x2="18.675" y2="28.843" xlink:href="#linear-gradient"/>
    <linearGradient id="linear-gradient-3" x1="65.489" y1="44.191" x2="65.248" y2="43.377" xlink:href="#linear-gradient"/>
    <linearGradient id="linear-gradient-4" x1="66.706" y1="43.123" x2="66.608" y2="42.404" gradientUnits="objectBoundingBox">
      <stop offset="0" stop-color="#125d9e"/>
      <stop offset="1" stop-color="#1d2c5e"/>
    </linearGradient>
    <linearGradient id="linear-gradient-5" x1="34.472" y1="13.134" x2="33.407" y2="13.546" xlink:href="#linear-gradient-4"/>
    <linearGradient id="linear-gradient-6" x1="12.469" y1="28.839" x2="12.739" y2="29.608" gradientUnits="objectBoundingBox">
      <stop offset="0" stop-color="#105fa1"/>
      <stop offset="1" stop-color="#1d2c5e"/>
    </linearGradient>
    <linearGradient id="linear-gradient-7" x1="8.983" y1="13.799" x2="9.208" y2="14.299" xlink:href="#linear-gradient-6"/>
    <linearGradient id="linear-gradient-8" x1="35.749" y1="-69.75" x2="36.749" y2="-69.75" gradientUnits="objectBoundingBox">
      <stop offset="0" stop-color="#3c5aa6"/>
      <stop offset="0.933" stop-color="#2b73b9"/>
      <stop offset="1" stop-color="#2a75bb"/>
    </linearGradient>
    <linearGradient id="linear-gradient-9" x1="2.122" y1="-10.194" x2="3.122" y2="-10.194" xlink:href="#linear-gradient-8"/>
  </defs>
  <g id="International_PokeÌmon_logo" transform="translate(-3.377 113.882) rotate(-25)">
    <path id="polygon16" d="M5.451,38.243l12.026,20.3,4.8-4.579L9.189,34.446Z" transform="translate(-5.451 -1.686)" fill="url(#linear-gradient)"/>
    <path id="polygon18" d="M184.009,22.288l-.465,2.676,5.752-1.856-.717-3.278Z" transform="translate(-5.451 -1.686)" fill="#0071b9"/>
    <path id="polygon25" d="M150.495,4.012,131.987,25.236l5.386-1.549,17.621-22Z" transform="translate(-5.451 -1.686)" fill="url(#linear-gradient-2)"/>
    <path id="polygon27" d="M249.507,33.031l4.543-2.421-1.3,11.376Z" transform="translate(-5.451 -1.686)" fill="#1d2c5e"/>
    <path id="polygon29" d="M221.271,40.326l4.038.827,5.154-2.5-4.473-1.669Z" transform="translate(-5.451 -1.686)" fill="#1d2c5e"/>
    <path id="polygon36" d="M82.049,28.247l.646,13.183,5.636-2.277L86.644,25.782Z" transform="translate(-5.451 -1.686)" fill="url(#linear-gradient-3)"/>
    <path id="polygon43" d="M225.641,24.313,221.1,26.761l.166,13.565,4.566-2.34,1.433-6.566Z" transform="translate(-5.451 -1.686)" fill="url(#linear-gradient-4)"/>
    <path id="polygon45" d="M225.018,41.191l-5,44.37,7.985-1.575L229.572,38.8Z" transform="translate(-5.451 -1.686)" fill="#312370"/>
    <path id="polygon47" d="M234.8,87.688l.142,6.017,15.328,4.885,4.562-2.418L239.788,84.52l-15.235-1.338-4.53,2.379Z" transform="translate(-5.451 -1.686)" fill="#21386e"/>
    <path id="polygon49" d="M177.934,77.105l3.767-2.029,2.4,4.436,3.55-1.951.707,5.848,22.284,3.952,4.453-2.449L184.368,66.189l-21.8,3.736-4.252,4.041Z" transform="translate(-5.451 -1.686)" fill="#21386e"/>
    <path id="polygon56" d="M170.838,22.514l-4.461,2.455-8.059,49,4.514-2.345,7.736-27.511Z" transform="translate(-5.451 -1.686)" fill="url(#linear-gradient-5)"/>
    <path id="polygon58" d="M135.24,29.081l-3.554,1.893.3,1.185,8.458-5.373-3.7-3.966-4.76,2.416Z" transform="translate(-5.451 -1.686)" fill="#1d2c5e"/>
    <path id="polygon60" d="M144.957,86.958l-36.34-18,4.562-3.449,36.3,19.008Z" transform="translate(-5.451 -1.686)" fill="#21386e"/>
    <path id="polygon62" d="M112.032,19.963l-5.507,10.443,5.819-1.762,4.2-11.128Z" transform="translate(-5.451 -1.686)" fill="#1d2c5e"/>
    <path id="path69" d="M56.633,61.419l-4.646,3.189a74.072,74.072,0,0,0,2.257,8.79,19.344,19.344,0,0,0,4.32,6.526A16.681,16.681,0,0,0,65.585,84,19.657,19.657,0,0,0,81.5,81.344a30.139,30.139,0,0,0,4.155-3.184C80.764,81.13,56.633,61.419,56.633,61.419Z" fill="url(#linear-gradient-6)"/>
    <path id="polygon71" d="M86.947,40.355l4.24,46.776,17.324-2.563,4.635-2.429-21.5-44.588-4.423,1.49L82.695,41.43Z" transform="translate(-5.451 -1.686)" fill="#1d2c5e"/>
    <path id="polygon78" d="M22,56.6l19.356,43.9,18.389-5.932,4.49-3.018L26.068,51.615l-4.776,2.862-3.815,4.067Z" transform="translate(-5.451 -1.686)" fill="url(#linear-gradient-7)"/>
    <path id="path80" d="M208.381,75.627l.26,2.155a21.413,21.413,0,0,0,4.672-.89,27.275,27.275,0,0,0,6.637-3.357c-.514.187-8.963,2.377-11.569,2.092" fill="#1d2c5e"/>
    <path id="path82" d="M143.322,64.418l.69,3.47a26.819,26.819,0,0,0,10.058-3.819c1.971-1.174,4.135-2.945,4.818-3.417C158.406,60.96,143.322,64.418,143.322,64.418Z" fill="#1d2c5e"/>
    <g id="g84" transform="translate(-5.451 -1.686)">
      <path id="path86" d="M46.389,96.338l-1.437-3.193L26.6,52.186l-.377-.84-.834.385-.557.256-3.267,1.6c-.482-.808-1.282-2.162-1.838-3.1L12.34,38.006l-1.932-3.259,3.2-2.025a70.211,70.211,0,0,1,10.151-5.3,56.62,56.62,0,0,1,21.826-4.816,38.14,38.14,0,0,1,6.513.541,20.9,20.9,0,0,1,9.225,3.263A20.28,20.28,0,0,1,70.037,36a17.963,17.963,0,0,1,.8,11.154L70.3,49.5l1.953-1.416a22.633,22.633,0,0,1,4.25-2.426A20.445,20.445,0,0,1,84.491,44a17.35,17.35,0,0,1,7.17,1.5l1.423.638-.143-1.553-.619-6.711-.1-1.064-1.036.269-3.109.806-.545-11.427,22.774-7.276-.184,8.881,1.715.44,4.974-9.532,14.9,13.212.621.553.606-.57a23.348,23.348,0,0,1,7.189-4.574l1.14-.466-.781-.953L137.8,22.9,154.9,3.181l8.957,13.365-13.711,7.37L147.1,25.554l3.457.073a21.073,21.073,0,0,1,16.205,7.742l1.428,1.761.92,1.131-1.528,1.622-1.019,1.082-3.426,3.654-.637.679.689.622,3.211,2.891,1.242,1.117.266-1.648,1.232-7.627.315-1.958.01.011.324-2,1.839-11.26h17.188l.13-.759.321-1.928h14.785l3.582,22.621.233,1.465,1.2-.871a20.68,20.68,0,0,1,4.766-2.576,19.7,19.7,0,0,1,6.967-1.3,17.034,17.034,0,0,1,7.836,1.861,1.227,1.227,0,0,0,.27.151l1.111.446.131-1.192.268-2.465.088-.808-.795-.177-3-.67-.146-11.792,22.857,5.031,1.717,8.485,1.775.035,1.771-7.3,19.06,4.635-19.478,58.7L240.33,90.663l-.1-5.407-.014-.775-.769-.108L225.54,82.41l.787-7.069.187-1.682-1.505.771a19.144,19.144,0,0,1-2.055.908,19.522,19.522,0,0,1-6.922,1.295,17.932,17.932,0,0,1-2-.111l-1.188-.133.186,1.18.979,6.217-20.291-3.579-1.063-9.226-.342-2.957-1.367,2.643-2.336,4.5-4.3-7.94-1.293-2.385-.408,2.68-.937,6.146-17.784-2.8,1.379-8.435.315-1.934L163.9,61.51a36.055,36.055,0,0,1-10.217,4.015,27.931,27.931,0,0,1-4.3.694l-.834.07V83.044L113.52,65.735l-1.316-.649v1.467l.024,14.8L96.57,83.664l-.658-7.109-.178-1.9-1.365,1.338a22.418,22.418,0,0,1-6.927,4.667,20.177,20.177,0,0,1-7.925,1.655,17.114,17.114,0,0,1-7.455-1.649,16.131,16.131,0,0,1-8.57-10.36,17.246,17.246,0,0,1-.5-6.854l.309-2.52-1.838,1.75a44.333,44.333,0,0,1-4.152,3.484l-.495.365.156.6,5.275,20.248.932,3.593-3.532,1.123-9.932,3.18-3.324,1.07h0Zm4.458-54.356a8.9,8.9,0,0,0-1.574.143l-.676.13-1,.192.3.972.2.632,2.84,9.293.284.893.422,1.34,1.05-.934.7-.621c2.753-2.474,3.718-4.986,3.137-8.154a4.6,4.6,0,0,0-2.684-3.244,6.856,6.856,0,0,0-2.995-.642h0Zm76.135.305-1.775,1.728-4.675,4.543-1.018.989,1.325.512,5.014,1.935,1.54.593-.318-1.618a21.492,21.492,0,0,1-.328-6.217l.235-2.465h0ZM147.4,37.12a7.022,7.022,0,0,0-6.125,10.389l.381.715.613,1.143.863-.966.555-.615,6.858-7.83.539-.62.865-.994-1.234-.457-.769-.284a6.986,6.986,0,0,0-2.546-.481h0Z" fill="#ffcb05"/>
    </g>
    <path id="path88" d="M152.438,47.032a1.127,1.127,0,0,0-.179.208c.069-.063.136-.118.207-.176Z" fill="#7d7f68"/>
    <path id="polygon90" d="M163.8,43.241l3.425-3.654-1.172,1.244.034-.157-1.036,1.093-3.422,3.643,3.206,2.884.581-3.592,1.6,1.429Z" transform="translate(-5.451 -1.686)" fill="#7d7f68"/>
    <path id="polygon92" d="M163.8,43.241l3.212,2.89,1.23-7.626-1.017,1.082Z" transform="translate(-5.451 -1.686)" fill="#7d7f68"/>
    <path id="path94" d="M115.715,47.522l.052.022Z" fill="#7d7f68"/>
    <path id="path96" d="M134.677,50.694c.274.277.021.078.328.288l2.1-1.477a8.57,8.57,0,0,1-.9-.72c-3.04-2.77-2.25-9-.278-12.41-5.191,4.188-4.921,10.635-1.243,14.319" fill="#c7a008"/>
    <path id="path98" d="M159.967,54.182a29.9,29.9,0,0,1-12.615,5.987,24.716,24.716,0,0,1-3.347.547c-8.271.813-15.21-2.985-17.843-9.145a13.271,13.271,0,0,1-.772-2.307,16.307,16.307,0,0,1,2.385-13.458c.254-.352.521-.689.8-1.032-.131.112-.265.208-.374.313a16.985,16.985,0,0,0-2.6,2.888,16.249,16.249,0,0,0-2.377,13.453,13.033,13.033,0,0,0,.758,2.3c2.634,6.174,9.575,9.97,17.839,9.163a24.076,24.076,0,0,0,3.353-.563,29.872,29.872,0,0,0,12.618-5.979,27.739,27.739,0,0,0,2.451-2.282l-.073-.07c-.079.068-.138.127-.206.184" fill="#c7a008"/>
    <path id="polygon100" d="M107.129,40.185,116.37,27.2,116,26.853l-8.916,12.524Z" transform="translate(-5.451 -1.686)" fill="#c7a008"/>
    <path id="polygon102" d="M168.244,38.505l-1.23,7.626-1.6-1.429-.581,3.592-3.206-2.884,3.422-3.643,1.036-1.093-.034.157,1.172-1.244Z" transform="translate(-5.451 -1.686)" fill="#c7a008"/>
    <path id="polygon104" d="M156.825,17.115l3.236-1.388-5.915-7.591-1.938,2.707Z" transform="translate(-5.451 -1.686)" fill="#c7a008"/>
    <path id="path106" d="M61.785,34.235c-14.936-18.195-41.849-8.415-51.522.1l.378.653a63.422,63.422,0,0,1,7.036-3.465c9.608-4.1,18.768-5.307,26.112-4.022a17.435,17.435,0,0,1,7.739,2.67,16.506,16.506,0,0,1,7.292,7.876c2.6,5.99.31,13.955-5.825,20.623C60.69,51.6,65.955,44.849,61.785,34.235Z" fill="#c7a008"/>
    <path id="path108" d="M92.257,55.433a9.2,9.2,0,0,0-.247-.988A12.448,12.448,0,0,0,86.993,47.4c-3.834-2.6-9.186-3.139-14.52-.887a20.082,20.082,0,0,0-7.175,5.31,19.663,19.663,0,0,1,5.009-3.131c5.322-2.259,10.674-1.725,14.521.876a12.548,12.548,0,0,1,5.02,7.044c.1.324.169.664.243,1.005a15.066,15.066,0,0,1,.29,3.5A18.357,18.357,0,0,1,86.832,71.1c-.346.474-.71.916-1.087,1.354a20.021,20.021,0,0,0,3.245-3.529,18.238,18.238,0,0,0,3.558-9.991,14.224,14.224,0,0,0-.291-3.5" fill="#c7a008"/>
    <path id="path110" d="M77.55,50.992c-.021.033,2.167-2.168,2.142-2.168A4.4,4.4,0,0,0,75.7,51.5a5.391,5.391,0,0,1,1.847-.512" fill="#c7a008"/>
    <path id="path112" d="M82.705,54.147a3.892,3.892,0,0,1-.189,2.765c.438-.229,3.6-1.764,2.376-5.016.066.1-2.266,2.241-2.187,2.251" fill="#c7a008"/>
    <path id="path114" d="M70.255,55.957c0-1.338,2.291-4.584,3-5.667-3.618,2.3-5.176,5.4-5.176,7.849A7.863,7.863,0,0,0,76.166,65.7a10.291,10.291,0,0,0,8.389-5.137c-1.307.86-4.629,2.918-6.372,2.918a7.682,7.682,0,0,1-7.928-7.521" fill="#c7a008"/>
    <path id="polygon116" d="M106.678,61.477l.057,16.955,2.691.154-.532-19.328Z" transform="translate(-5.451 -1.686)" fill="#c7a008"/>
    <path id="polygon118" d="M91.232,29.2l.055,1.506,12.753-3.8.945,16.24,2.128-2.982-.454-16.3Z" transform="translate(-5.451 -1.686)" fill="#c7a008"/>
    <path id="polygon120" d="M129.783,35.012,117.8,24.018,116.37,27.2,126.913,37.1Z" transform="translate(-5.451 -1.686)" fill="#c7a008"/>
    <path id="path122" d="M122.511,53.814l-14.064-4.65L106.4,51.328l14.011,5.607a19.536,19.536,0,0,0,7.029,7.434,22.991,22.991,0,0,0,9.841,3.211V74.5l2.172,1.084.687-10.4L122.511,53.814Z" fill="#c7a008"/>
    <path id="path124" d="M145.1,51.858a12.971,12.971,0,0,0,7.161-4.618c-1.287,1.056-7.739,2.462-8.823,2.829l-2.125,2.263a13.761,13.761,0,0,0,3.787-.474" fill="#c7a008"/>
    <path id="path126" d="M138.813,27.943c-6.369.834-9.688,6.181-10.237,6.832a20.72,20.72,0,0,1,8.62-4.248c7.881-1.906,14.83.5,19.125,5.807l2.658-2.25c-4.254-5.218-12.287-8.041-20.166-6.141" fill="#c7a008"/>
    <path id="path128" d="M160.174,54a35.139,35.139,0,0,0,2.859-2.06l-8.528-7.62a22,22,0,0,1-2.042,2.745L160.174,54Z" fill="#c7a008"/>
    <path id="path130" d="M203.938,74.418c-8.947-7.354-8.412-23.123-4.02-28.126l-3.942-24.715-8.622,1.113-.384,2.177h6.524l3.455,22.424c-4.4,5.019-6.52,11.743-5.051,17.9a16.317,16.317,0,0,0,8.265,10.834c.423.232.86.434,1.307.625l.056.329,2.565.4s.267-2.751-.153-2.965Z" fill="#c7a008"/>
    <path id="polygon132" d="M175,26.9l-.371,2.178h9.834l2.9,15.881,2.182-2.2L187.249,25.99Z" transform="translate(-5.451 -1.686)" fill="#c7a008"/>
    <path id="polygon134" d="M191.836,57.73l-3.175,8.2.786,2.134,4.541-12.491Z" transform="translate(-5.451 -1.686)" fill="#c7a008"/>
    <path id="polygon136" d="M182.407,52.564l-2.186,2.183-2.343,14.814,2.244.857Z" transform="translate(-5.451 -1.686)" fill="#c7a008"/>
    <path id="path138" d="M221.123,46.146a11.505,11.505,0,0,1,3.211,3.465,12.244,12.244,0,0,1,1.46,3.553A16.13,16.13,0,0,1,222.753,66.3c-.285.392-.6.771-.9,1.143,1.15-.989,15.118-11.292,1.471-24.824-15.01-4.948-20.692,4.845-21.223,5.466a18.7,18.7,0,0,1,5.4-3.221c5.08-1.924,10.078-1.257,13.623,1.285" fill="#c7a008"/>
    <path id="path140" d="M213.556,47.122c.042.1,2.155-2.2,2.2-2.2-2.671.11-3.954,1.4-3.822,1.994a3.6,3.6,0,0,0-.392.713,6.274,6.274,0,0,1,2.016-.505" fill="#c7a008"/>
    <path id="path142" d="M218.578,50.479a4.037,4.037,0,0,1,.134,1.136,3.944,3.944,0,0,1-.354,1.43c.406-.183,3.643-1.188,2.407-4.75.032.1-2.222,2.186-2.187,2.184" fill="#c7a008"/>
    <path id="path144" d="M211.487,61.789c3.021.129,6.362-1.727,8.758-5.007-6.148,1.261-12.611-8.977-11.963-9.979-2.323,1.684-4.379,4.932-4.473,7.2a7.686,7.686,0,0,0,7.678,7.784" fill="#c7a008"/>
    <path id="polygon146" d="M250.629,90.15l1.441.964,17.588-52.785-13.163-3.042-.165,3.092,10.618,2.356Z" transform="translate(-5.451 -1.686)" fill="#c7a008"/>
    <path id="polygon148" d="M229.742,29.629l.115,2.948,14,2.811,5.388,25.553,2.181-2.2-5.133-25.816Z" transform="translate(-5.451 -1.686)" fill="#c7a008"/>
    <path id="polygon150" d="M240.512,58.748,236.659,80.54l2.219.719L242.7,56.6Z" transform="translate(-5.451 -1.686)" fill="#c7a008"/>
    <path id="polygon152" d="M58.9,88.536,52.35,64.8l-2.4,1.676,6.067,22.737Z" transform="translate(-5.451 -1.686)" fill="#c7a008"/>
    <path id="path154" d="M51.746,51.162A49.868,49.868,0,0,1,44.982,57.1l-1.158-3.718-2.536-8.152-1.612-5.519L38.1,41.735l1.606,5.527,2.536,8.146L43.4,59.137c2.611-1.682,6.409-4.839,8.348-7.975" fill="#c7a008"/>
    <path id="path156" d="M144.5,37.129c-2.066-.795-4.992-.556-6.572,1.173a11.863,11.863,0,0,0-1.307,1.881,6.946,6.946,0,0,1,6.037-.835l1.842-2.219Z" fill="#7d7f68"/>
    <path id="path158" d="M49.857,44.493a3.952,3.952,0,0,0-2.013-2.458,7.8,7.8,0,0,0-4.185-.344c.238.822.511,1.786.627,2.181a8.373,8.373,0,0,1,1.882.446A3.185,3.185,0,0,1,48,46.486a6.529,6.529,0,0,1-.45,4.415c1.873-1.838,2.782-3.837,2.306-6.408" fill="#7d7f68"/>
    <g id="g160" transform="translate(-5.451 -1.686)">
      <g id="g162">
        <path id="path164" d="M58.588,46.145c-.9-4.824-7.207-7.483-13.461-4.072l1.612,5.521,2.536,8.159,1.157,3.716c4.692-3.017,9.408-6.642,8.156-13.324Zm-6.212,7.418c-.683-2.229-2.181-7.042-2.181-7.042.007.022-.295-1.03-.653-2.234a5.991,5.991,0,0,1,3.648.363,3.132,3.132,0,0,1,1.841,2.164C55.549,49.588,54.614,51.568,52.376,53.563Z" fill="#3c5aa6"/>
      </g>
    </g>
    <g id="g166" transform="translate(-5.451 -1.686)">
      <g id="g168">
        <path id="path170" d="M153.223,38.491a8.574,8.574,0,1,0-11.574,12.653,7.711,7.711,0,0,0,.9.721l11.277-12.771C153.63,38.886,153.43,38.679,153.223,38.491Zm-10.648,8.983a5.533,5.533,0,0,1,6.857-7.819Z" fill="#3567b0"/>
      </g>
    </g>
    <path id="polygon172" d="M168.291,37.089l-6.245,6.017,5.933,5.328Z" transform="translate(-5.451 -1.686)" fill="#1e2d5f"/>
    <path id="path174" d="M220.748,48.295a4.155,4.155,0,0,1,.132,1.153,4.882,4.882,0,0,1-9.687-.4,4.54,4.54,0,0,1,4.533-4.11,7.912,7.912,0,0,0-1.461-.178c-4.473-.193-8.129,2.975-8.283,6.919a7.98,7.98,0,0,0,15.922.65,6.906,6.906,0,0,0-1.156-4.037" fill="#3466af"/>
    <path id="path183" d="M85.053,53.112a4.88,4.88,0,0,1-9.695,0,4.535,4.535,0,0,1,4.358-4.288,8.183,8.183,0,0,0-1.461-.134c-4.472,0-8,3.317-8,7.267a7.978,7.978,0,0,0,15.929,0,6.7,6.7,0,0,0-1.311-3.966,3.593,3.593,0,0,1,.18,1.121" fill="url(#linear-gradient-8)"/>
    <g id="g185" transform="translate(-5.451 -1.686)">
      <g id="g187">
        <path id="path196" d="M254.02,30.6l-1.986,8.185L250.2,29.72l-24.559-5.406.172,13.656,3.7.83-.267,2.463a.374.374,0,0,1-.1-.069,19.068,19.068,0,0,0-15.629-.647,21.556,21.556,0,0,0-4.975,2.688l-3.705-23.388H188.5l-.45,2.689H170.86L168.9,34.559,167.471,32.8a22,22,0,0,0-16.9-8.077l14.6-7.845L154.994,1.687,136.605,22.876l3.174,3.87a24.242,24.242,0,0,0-7.468,4.752L116.544,17.509l-5.513,10.566.212-10.154L86.592,25.8l.632,13.244,4.194-1.088.62,6.712a19.937,19.937,0,0,0-15.894.158,23.55,23.55,0,0,0-4.419,2.524,18.777,18.777,0,0,0-.853-11.715,21.088,21.088,0,0,0-9.048-9.974,21.7,21.7,0,0,0-9.571-3.4c-8.53-1.491-18.773.04-28.854,4.335a71.107,71.107,0,0,0-10.281,5.361l-3.941,2.5,2.38,4.019,7.386,12.483s2.26,3.825,2.275,3.823l3.994-1.963.557-.256L44.122,93.517l1.77,3.937,4.1-1.32,9.93-3.181,4.352-1.383-1.148-4.43L57.85,66.895a44.469,44.469,0,0,0,4.24-3.561,18.263,18.263,0,0,0,.526,7.212,17.023,17.023,0,0,0,9.053,10.933,19.62,19.62,0,0,0,16.131.015,23.461,23.461,0,0,0,7.207-4.854l.749,8.063,17.39-2.561-.027-15.593,36.337,17.959V67.119A28.665,28.665,0,0,0,153.9,66.4a36.925,36.925,0,0,0,10.47-4.116l-1.526,9.339,19.592,3.083,1.075-7.05,5.117,9.453,3.128-6.027,1.143,9.9,22.213,3.916-1.178-7.473a20.67,20.67,0,0,0,11.492-2.187l-.885,7.951,14.784,2.086.11,6.063,15.416,4.839L274.92,35.678l-20.9-5.08Zm-86.793,8.99,1.019-1.083-1.231,7.627L163.8,43.24ZM154.209,8.432l5.382,7.311L144.2,23.371l-1.063-1.615L154.209,8.432ZM52.32,64.809l6.139,23.555-9.936,3.174L28.134,46c-1.109.583-3.157,1.561-5.038,2.483L15.713,36.015a64.32,64.32,0,0,1,9.581-4.984c9.612-4.088,18.783-5.308,26.118-4.012a17.489,17.489,0,0,1,7.748,2.654,16.554,16.554,0,0,1,7.282,7.875C69.993,45.754,64.061,57.563,52.32,64.809ZM98,60.617a18.231,18.231,0,0,1-3.558,9.994,19.9,19.9,0,0,1-8.287,6.7c-8.62,3.652-17.24,0-19.543-8.184-2.231-7.913,2.96-17.333,11.312-20.931,5.334-2.252,10.686-1.718,14.52.887a12.455,12.455,0,0,1,5.017,7.047,9.573,9.573,0,0,1,.247.988,14.38,14.38,0,0,1,.292,3.5ZM144.9,77.27,108.847,59.237l.064,18.894L99.584,79.4l-.65-7.788a20.919,20.919,0,0,0,2.43-16.093A16.893,16.893,0,0,0,96.944,48L95.606,32.124,91.418,33.21l-.185-4.015,14.978-4.46.918,15.448,11.034-15.5L128.95,34.953,113.865,50.845l14.172,5.606a19.464,19.464,0,0,0,7.028,7.427,22.927,22.927,0,0,0,9.835,3.228l0,10.164h0ZM126.181,51.144l-5.015-1.935,4.675-4.544A22.4,22.4,0,0,0,126.181,51.144Zm39.237,4.724A29.9,29.9,0,0,1,152.8,61.855a24.716,24.716,0,0,1-3.347.547c-8.271.813-15.21-2.985-17.843-9.145a13.272,13.272,0,0,1-.772-2.307A16.2,16.2,0,0,1,135.824,34.6a20.7,20.7,0,0,1,9-4.562c7.879-1.9,14.818.5,19.072,5.725L148.882,51.74a10.818,10.818,0,0,0,3.832-.361,13.213,13.213,0,0,0,7.34-4.838l6,5.4,1.818,1.642A32.347,32.347,0,0,1,165.418,55.868Zm31.853,21.327L194,55.56l-4.619,11.935L182.47,52.578h-.078l-2.733,17.275-11.527-2.006,1.621-9.64c.435-.409.863-.819,1.284-1.252l3.736-3.847-3.631-3.252L175,26.9h11.63l2.911,15.892L192.8,24.374h8.319l3.452,22.438c-4.393,5-6.527,11.731-5.059,17.885a16.376,16.376,0,0,0,8.27,10.857c.423.213.861.424,1.313.606l.44,2.909-12.267-1.874ZM226,70.146a17.912,17.912,0,0,1-4.174,2.229,15.54,15.54,0,0,1-8.553.843,12.766,12.766,0,0,1-4.961-2.112,12.384,12.384,0,0,1-4.769-7.25,15.482,15.482,0,0,1,1.937-11.2,20.134,20.134,0,0,1,3.8-4.688,18.951,18.951,0,0,1,5.84-3.6c5.083-1.9,10.1-1.242,13.625,1.295a11.938,11.938,0,0,1,3.224,3.452,12.392,12.392,0,0,1,1.447,3.554,16.1,16.1,0,0,1-3.031,13.138A19.506,19.506,0,0,1,226,70.146Zm25.955,20.392L243.427,88l-.743-31.426L238.4,80.816l-9.3-1.484.666-6.98c6.072-5.131,9.291-13.225,7.527-20.56a16.127,16.127,0,0,0-4.8-8.226l.785-8.232-3.516-.936L230,30l16.021,3.22L251.4,58.769l5.525-22.9,12.188,2.693L251.951,90.538Z" fill="url(#linear-gradient-9)"/>
      </g>
    </g>
    <g id="flowRoot3115" transform="translate(14.793 6.431)">
      <path id="path3084" d="M238.711,85.4V83.027h-.886V82.71h2.132v.317h-.89V85.4Z"/>
      <path id="path3086" d="M240.313,85.4V82.71h.536l.637,1.9q.088.266.128.4.046-.147.143-.431l.644-1.872h.479V85.4h-.343V83.148l-.782,2.251h-.321l-.778-2.29V85.4Z"/>
    </g>
  </g>
</svg>
